<svg width="74" height="72" viewBox="0 0 74 72" fill="none" xmlns="http://www.w3.org/2000/svg">
<path d="M64.75 63L51.3375 49.95M58.5833 33C58.5833 46.2548 47.5397 57 33.9167 57C20.2936 57 9.25 46.2548 9.25 33C9.25 19.7452 20.2936 9 33.9167 9C47.5397 9 58.5833 19.7452 58.5833 33Z" stroke="#1E1E1E" stroke-width="5.5" stroke-linecap="round" stroke-linejoin="round"/>
<path d="M33.5 27.2083V47.625" stroke="#00ADEF" stroke-width="3" stroke-linecap="round" stroke-linejoin="round"/>
<path d="M40 34.5H43.25" stroke="#00ADEF" stroke-width="2" stroke-linecap="round" stroke-linejoin="round"/>
<path d="M40 28.6667H43.25" stroke="#00ADEF" stroke-width="2" stroke-linecap="round" stroke-linejoin="round"/>
<path d="M18.875 43.25C18.444 43.25 18.0307 43.0964 17.726 42.8229C17.4212 42.5494 17.25 42.1784 17.25 41.7917V22.8333C17.25 22.4466 17.4212 22.0756 17.726 21.8021C18.0307 21.5286 18.444 21.375 18.875 21.375H27C28.7239 21.375 30.3772 21.9896 31.5962 23.0835C32.8152 24.1775 33.5 25.6612 33.5 27.2083C33.5 25.6612 34.1848 24.1775 35.4038 23.0835C36.6228 21.9896 38.2761 21.375 40 21.375H48.125C48.556 21.375 48.9693 21.5286 49.274 21.8021C49.5788 22.0756 49.75 22.4466 49.75 22.8333V41.7917C49.75 42.1784 49.5788 42.5494 49.274 42.8229C48.9693 43.0964 48.556 43.25 48.125 43.25H38.375C37.0821 43.25 35.8421 43.7109 34.9279 44.5314C34.0136 45.3519 33.5 46.4647 33.5 47.625C33.5 46.4647 32.9864 45.3519 32.0721 44.5314C31.1579 43.7109 29.9179 43.25 28.625 43.25H18.875Z" stroke="#00ADEF" stroke-width="3" stroke-linecap="round" stroke-linejoin="round"/>
<path d="M23.75 34.5H27" stroke="#00ADEF" stroke-width="2" stroke-linecap="round" stroke-linejoin="round"/>
<path d="M23.75 28.6667H27" stroke="#00ADEF" stroke-width="2" stroke-linecap="round" stroke-linejoin="round"/>
</svg>
