<svg width="11" height="11" viewBox="0 0 11 11" fill="none" xmlns="http://www.w3.org/2000/svg">
<path d="M6.84891 2.65135C6.75732 2.74479 6.70601 2.87042 6.70601 3.00126C6.70601 3.13211 6.75732 3.25774 6.84891 3.35118L7.64875 4.151C7.74219 4.24259 7.86782 4.29389 7.99867 4.29389C8.12952 4.29389 8.25516 4.24259 8.3486 4.151L9.90128 2.59886C10.0612 2.43789 10.3327 2.48888 10.3927 2.70783C10.5437 3.25714 10.5352 3.8381 10.3681 4.38274C10.201 4.92737 9.88219 5.41315 9.44907 5.78324C9.01594 6.15332 8.48636 6.39239 7.92232 6.47249C7.35827 6.55258 6.78307 6.47038 6.26403 6.23551L2.30986 10.1896C2.11099 10.3884 1.84129 10.5 1.56009 10.5C1.27889 10.5 1.00922 10.3882 0.810419 10.1893C0.611614 9.99047 0.499953 9.72078 0.5 9.43959C0.500047 9.1584 0.611798 8.88874 0.810669 8.68994L4.76485 4.73586C4.52997 4.21684 4.44777 3.64166 4.52786 3.07762C4.60796 2.51358 4.84704 1.98403 5.21713 1.55091C5.58722 1.11779 6.07302 0.799032 6.61766 0.631928C7.16231 0.464824 7.74329 0.456289 8.29261 0.607321C8.51157 0.667307 8.56256 0.938244 8.40209 1.09921L6.84891 2.65135Z" stroke="#9D9D9D" stroke-linecap="round" stroke-linejoin="round"/>
</svg>
