<svg width="316" height="87" viewBox="0 0 316 87" fill="none" xmlns="http://www.w3.org/2000/svg">
<path d="M94.75 65L81.3375 51.95M88.5833 35C88.5833 48.2548 77.5397 59 63.9167 59C50.2936 59 39.25 48.2548 39.25 35C39.25 21.7452 50.2936 11 63.9167 11C77.5397 11 88.5833 21.7452 88.5833 35Z" stroke="#1E1E1E" stroke-width="5.5" stroke-linecap="round" stroke-linejoin="round"/>
<path d="M220.125 79.4375C220.125 79.1458 220.026 78.8854 219.828 78.6562C219.63 78.4271 219.318 78.1927 218.891 77.9531C218.464 77.7031 217.896 77.4271 217.188 77.125C216.417 76.8125 215.734 76.4896 215.141 76.1562C214.547 75.8229 214.042 75.4531 213.625 75.0469C213.219 74.6406 212.911 74.1771 212.703 73.6562C212.495 73.1354 212.391 72.5417 212.391 71.875C212.391 71.1562 212.521 70.4948 212.781 69.8906C213.052 69.276 213.438 68.7396 213.938 68.2812C214.438 67.8125 215.047 67.4479 215.766 67.1875C216.495 66.9167 217.312 66.7812 218.219 66.7812C219.49 66.7812 220.578 67.0052 221.484 67.4531C222.401 67.8906 223.104 68.5052 223.594 69.2969C224.083 70.0885 224.328 71.0104 224.328 72.0625H219.953C219.953 71.6875 219.896 71.3542 219.781 71.0625C219.667 70.7604 219.479 70.526 219.219 70.3594C218.969 70.1927 218.63 70.1094 218.203 70.1094C217.891 70.1094 217.609 70.1771 217.359 70.3125C217.12 70.4479 216.927 70.6302 216.781 70.8594C216.646 71.0781 216.578 71.3385 216.578 71.6406C216.578 71.8698 216.625 72.0729 216.719 72.25C216.823 72.4271 216.984 72.599 217.203 72.7656C217.422 72.9323 217.714 73.1094 218.078 73.2969C218.453 73.474 218.911 73.6719 219.453 73.8906C220.578 74.3073 221.5 74.7552 222.219 75.2344C222.948 75.7135 223.49 76.276 223.844 76.9219C224.198 77.5573 224.375 78.3438 224.375 79.2812C224.375 80.0312 224.229 80.7135 223.938 81.3281C223.656 81.9427 223.245 82.474 222.703 82.9219C222.161 83.3698 221.51 83.7135 220.75 83.9531C220 84.1927 219.161 84.3125 218.234 84.3125C216.87 84.3125 215.719 84.0417 214.781 83.5C213.844 82.9583 213.135 82.2656 212.656 81.4219C212.177 80.5677 211.938 79.6823 211.938 78.7656H216.094C216.115 79.3281 216.219 79.7708 216.406 80.0938C216.604 80.4062 216.87 80.625 217.203 80.75C217.536 80.875 217.906 80.9375 218.312 80.9375C218.719 80.9375 219.052 80.8854 219.312 80.7812C219.583 80.6667 219.786 80.4948 219.922 80.2656C220.057 80.026 220.125 79.75 220.125 79.4375ZM234.866 80.6719C235.272 80.6719 235.621 80.5885 235.913 80.4219C236.215 80.2552 236.444 79.9844 236.6 79.6094C236.756 79.2344 236.84 78.75 236.85 78.1562H240.959C240.959 79.4271 240.689 80.526 240.147 81.4531C239.616 82.3698 238.897 83.0781 237.991 83.5781C237.095 84.0677 236.079 84.3125 234.944 84.3125C233.808 84.3125 232.819 84.1302 231.975 83.7656C231.131 83.401 230.433 82.8698 229.881 82.1719C229.34 81.474 228.928 80.625 228.647 79.625C228.376 78.6146 228.241 77.4583 228.241 76.1562V74.9219C228.241 73.6406 228.376 72.4948 228.647 71.4844C228.928 70.474 229.34 69.6198 229.881 68.9219C230.433 68.224 231.126 67.6927 231.959 67.3281C232.803 66.9635 233.793 66.7812 234.928 66.7812C236.147 66.7812 237.204 67.0365 238.1 67.5469C238.996 68.0469 239.694 68.7865 240.194 69.7656C240.704 70.7448 240.959 71.9531 240.959 73.3906H236.85C236.84 72.7448 236.761 72.2083 236.616 71.7812C236.48 71.3438 236.267 71.0104 235.975 70.7812C235.694 70.5417 235.319 70.4219 234.85 70.4219C234.36 70.4219 233.965 70.526 233.663 70.7344C233.371 70.9323 233.147 71.224 232.991 71.6094C232.845 71.9844 232.746 72.4531 232.694 73.0156C232.642 73.5781 232.616 74.2135 232.616 74.9219V76.1562C232.616 76.9167 232.636 77.5781 232.678 78.1406C232.73 78.6927 232.829 79.1615 232.975 79.5469C233.131 79.9219 233.355 80.2031 233.647 80.3906C233.949 80.5781 234.355 80.6719 234.866 80.6719ZM249.341 60V84H244.966V60H249.341ZM248.716 74.9688L247.528 75C247.528 73.8125 247.648 72.7188 247.888 71.7188C248.127 70.7188 248.481 69.849 248.95 69.1094C249.429 68.3698 250.002 67.7969 250.669 67.3906C251.346 66.9844 252.091 66.7812 252.903 66.7812C253.601 66.7812 254.236 66.901 254.809 67.1406C255.382 67.3802 255.877 67.7552 256.294 68.2656C256.721 68.776 257.049 69.4531 257.278 70.2969C257.507 71.1302 257.622 72.1406 257.622 73.3281V84H253.231V73.2969C253.231 72.5677 253.158 71.9948 253.013 71.5781C252.867 71.1615 252.648 70.8698 252.356 70.7031C252.065 70.526 251.7 70.4375 251.263 70.4375C250.794 70.4375 250.393 70.5521 250.059 70.7812C249.736 71.0104 249.476 71.3333 249.278 71.75C249.08 72.1562 248.934 72.6354 248.841 73.1875C248.757 73.7396 248.716 74.3333 248.716 74.9688ZM261.925 76.125V74.9844C261.925 73.6615 262.081 72.4896 262.394 71.4688C262.717 70.4479 263.175 69.5938 263.769 68.9062C264.362 68.2083 265.076 67.6823 265.909 67.3281C266.753 66.9635 267.696 66.7812 268.737 66.7812C269.79 66.7812 270.732 66.9635 271.566 67.3281C272.409 67.6823 273.128 68.2083 273.722 68.9062C274.326 69.5938 274.79 70.4479 275.112 71.4688C275.435 72.4896 275.597 73.6615 275.597 74.9844V76.125C275.597 77.4375 275.435 78.6042 275.112 79.625C274.79 80.6458 274.326 81.5052 273.722 82.2031C273.128 82.901 272.415 83.4271 271.581 83.7812C270.748 84.1354 269.81 84.3125 268.769 84.3125C267.727 84.3125 266.784 84.1354 265.941 83.7812C265.107 83.4271 264.389 82.901 263.784 82.2031C263.18 81.5052 262.717 80.6458 262.394 79.625C262.081 78.6042 261.925 77.4375 261.925 76.125ZM266.3 74.9844V76.125C266.3 76.9062 266.352 77.5833 266.456 78.1562C266.571 78.7292 266.732 79.2031 266.941 79.5781C267.159 79.9531 267.42 80.2292 267.722 80.4062C268.024 80.5833 268.373 80.6719 268.769 80.6719C269.165 80.6719 269.519 80.5833 269.831 80.4062C270.144 80.2292 270.399 79.9531 270.597 79.5781C270.805 79.2031 270.956 78.7292 271.05 78.1562C271.154 77.5833 271.206 76.9062 271.206 76.125V74.9844C271.206 74.224 271.149 73.5573 271.034 72.9844C270.92 72.401 270.758 71.9271 270.55 71.5625C270.342 71.1875 270.081 70.9062 269.769 70.7188C269.467 70.5208 269.123 70.4219 268.737 70.4219C268.352 70.4219 268.008 70.5208 267.706 70.7188C267.415 70.9062 267.159 71.1875 266.941 71.5625C266.732 71.9271 266.571 72.401 266.456 72.9844C266.352 73.5573 266.3 74.224 266.3 74.9844ZM279.463 76.125V74.9844C279.463 73.6615 279.619 72.4896 279.931 71.4688C280.254 70.4479 280.713 69.5938 281.306 68.9062C281.9 68.2083 282.614 67.6823 283.447 67.3281C284.291 66.9635 285.233 66.7812 286.275 66.7812C287.327 66.7812 288.27 66.9635 289.103 67.3281C289.947 67.6823 290.666 68.2083 291.259 68.9062C291.864 69.5938 292.327 70.4479 292.65 71.4688C292.973 72.4896 293.134 73.6615 293.134 74.9844V76.125C293.134 77.4375 292.973 78.6042 292.65 79.625C292.327 80.6458 291.864 81.5052 291.259 82.2031C290.666 82.901 289.952 83.4271 289.119 83.7812C288.285 84.1354 287.348 84.3125 286.306 84.3125C285.265 84.3125 284.322 84.1354 283.478 83.7812C282.645 83.4271 281.926 82.901 281.322 82.2031C280.718 81.5052 280.254 80.6458 279.931 79.625C279.619 78.6042 279.463 77.4375 279.463 76.125ZM283.838 74.9844V76.125C283.838 76.9062 283.89 77.5833 283.994 78.1562C284.108 78.7292 284.27 79.2031 284.478 79.5781C284.697 79.9531 284.957 80.2292 285.259 80.4062C285.561 80.5833 285.91 80.6719 286.306 80.6719C286.702 80.6719 287.056 80.5833 287.369 80.4062C287.681 80.2292 287.936 79.9531 288.134 79.5781C288.343 79.2031 288.494 78.7292 288.588 78.1562C288.692 77.5833 288.744 76.9062 288.744 76.125V74.9844C288.744 74.224 288.686 73.5573 288.572 72.9844C288.457 72.401 288.296 71.9271 288.088 71.5625C287.879 71.1875 287.619 70.9062 287.306 70.7188C287.004 70.5208 286.66 70.4219 286.275 70.4219C285.89 70.4219 285.546 70.5208 285.244 70.7188C284.952 70.9062 284.697 71.1875 284.478 71.5625C284.27 71.9271 284.108 72.401 283.994 72.9844C283.89 73.5573 283.838 74.224 283.838 74.9844ZM302.094 60V84H297.703V60H302.094Z" fill="#00ADEF"/>
<path d="M1.59375 46.7188V44.5312H11.5625V45.9375C11.5417 48.125 12.125 49.75 13.3125 50.8125C14.5208 51.875 16.1979 52.4062 18.3438 52.4062C20.4062 52.4062 22 51.9167 23.125 50.9375C24.25 49.9583 24.8125 48.6458 24.8125 47C24.8125 45.5417 24.1979 44.3542 22.9688 43.4375C21.7396 42.5 19.3646 41.4792 15.8438 40.375C11.1354 38.8958 7.67708 37.0208 5.46875 34.75C3.26042 32.4792 2.15625 29.5417 2.15625 25.9375C2.15625 21.8958 3.59375 18.6979 6.46875 16.3438C9.36458 13.9896 13.2188 12.8125 18.0312 12.8125C22.8021 12.8125 26.6562 13.9167 29.5938 16.125C32.5312 18.3125 34 21.3958 34 25.375V27.125H24.1875V26.0625C24.1875 24.2708 23.6771 22.8646 22.6562 21.8438C21.6354 20.8229 20.1458 20.3125 18.1875 20.3125C16.1458 20.3125 14.6562 20.75 13.7188 21.625C12.8021 22.4792 12.3438 23.625 12.3438 25.0625C12.3438 26.3958 12.9792 27.4896 14.25 28.3438C15.5417 29.1771 18.0208 30.1458 21.6875 31.25C26.2292 32.6042 29.5729 34.4375 31.7188 36.75C33.8854 39.0625 34.9688 42.1562 34.9688 46.0312C34.9688 50.3021 33.4479 53.6458 30.4062 56.0625C27.3854 58.4792 23.4062 59.6875 18.4688 59.6875C13.5312 59.6875 9.47917 58.5938 6.3125 56.4062C3.16667 54.1979 1.59375 50.9688 1.59375 46.7188ZM98.05 59V13.5H116.206C120.831 13.5 124.279 14.5 126.55 16.5C128.842 18.5 129.988 21.375 129.988 25.125C129.988 27.7083 129.435 29.8542 128.331 31.5625C127.227 33.25 125.79 34.4062 124.019 35.0312V35.1562C126.206 35.7188 128.008 36.9167 129.425 38.75C130.863 40.5625 131.581 43.0625 131.581 46.25C131.581 50.25 130.269 53.375 127.644 55.625C125.04 57.875 121.477 59 116.956 59H98.05ZM108.519 51.8125H114.675C116.758 51.8125 118.29 51.2292 119.269 50.0625C120.269 48.8958 120.769 47.3125 120.769 45.3125C120.769 43.3333 120.269 41.75 119.269 40.5625C118.29 39.3542 116.758 38.75 114.675 38.75H108.519V51.8125ZM108.519 32.875H114.05C116.05 32.875 117.498 32.3438 118.394 31.2812C119.29 30.2188 119.738 28.7292 119.738 26.8125C119.738 24.9167 119.29 23.4688 118.394 22.4688C117.498 21.4688 116.05 20.9688 114.05 20.9688H108.519V32.875ZM139.375 59V13.5H157.438C162.021 13.5 165.625 14.8021 168.25 17.4062C170.896 20.0104 172.219 23.4792 172.219 27.8125C172.219 32.25 170.833 35.8438 168.062 38.5938C165.312 41.3229 161.729 42.6875 157.312 42.6875H150.094V59H139.375ZM150.094 35.5312H155.344C157.573 35.5312 159.135 34.8646 160.031 33.5312C160.948 32.1979 161.406 30.4688 161.406 28.3438C161.406 26.2188 160.948 24.5 160.031 23.1875C159.135 21.8542 157.573 21.1875 155.344 21.1875H150.094V35.5312ZM162.406 59L153.562 38.9375L163.375 36.625L174.125 59H162.406ZM177.2 59L192.137 13.4375H204.012L218.762 59H208.044L198.669 27.9375C198.44 27.125 198.242 26.4062 198.075 25.7812C197.929 25.1354 197.794 24.5625 197.669 24.0625H197.544C197.419 24.5625 197.273 25.1354 197.106 25.7812C196.94 26.4062 196.742 27.125 196.512 27.9375L187.481 59H177.2ZM185.731 49.75L187.387 42.5312H208.137L209.887 49.75H185.731ZM224.587 59V13.5H243.337C248.108 13.5 251.754 14.9062 254.275 17.7188C256.796 20.5104 258.056 24.2396 258.056 28.9062C258.056 33.5729 256.817 37.3125 254.337 40.125C251.858 42.9375 248.14 44.3438 243.181 44.3438H235.306V59H224.587ZM235.306 36.9375H240.962C243.358 36.9375 245.015 36.1979 245.931 34.7188C246.869 33.2188 247.337 31.3438 247.337 29.0938C247.337 26.8646 246.869 25.0208 245.931 23.5625C245.015 22.0833 243.358 21.3333 240.962 21.3125H235.306V36.9375ZM264.35 37.5312V34.9688C264.35 27.3229 266.131 21.7188 269.694 18.1562C273.256 14.5938 277.829 12.8125 283.413 12.8125C289.017 12.8125 293.6 14.5938 297.163 18.1562C300.725 21.7188 302.506 27.3229 302.506 34.9688V37.5312C302.506 45.1771 300.725 50.7812 297.163 54.3438C293.6 57.9062 289.017 59.6875 283.413 59.6875C277.829 59.6875 273.256 57.9062 269.694 54.3438C266.131 50.7812 264.35 45.1771 264.35 37.5312ZM275.475 40.2188C275.475 44.4896 276.183 47.5625 277.6 49.4375C279.017 51.2917 280.954 52.2188 283.413 52.2188C285.871 52.2188 287.808 51.2917 289.225 49.4375C290.642 47.5625 291.35 44.4896 291.35 40.2188V32.3438C291.35 28.0938 290.642 25.0417 289.225 23.1875C287.808 21.3333 285.871 20.4062 283.413 20.4062C280.954 20.4062 279.017 21.3333 277.6 23.1875C276.183 25.0417 275.475 28.0938 275.475 32.3438V40.2188Z" fill="black"/>
<path d="M63.5 29.2083V49.625" stroke="#00ADEF" stroke-width="3" stroke-linecap="round" stroke-linejoin="round"/>
<path d="M70 36.5H73.25" stroke="#00ADEF" stroke-width="2" stroke-linecap="round" stroke-linejoin="round"/>
<path d="M70 30.6667H73.25" stroke="#00ADEF" stroke-width="2" stroke-linecap="round" stroke-linejoin="round"/>
<path d="M48.875 45.25C48.444 45.25 48.0307 45.0964 47.726 44.8229C47.4212 44.5494 47.25 44.1784 47.25 43.7917V24.8333C47.25 24.4466 47.4212 24.0756 47.726 23.8021C48.0307 23.5286 48.444 23.375 48.875 23.375H57C58.7239 23.375 60.3772 23.9896 61.5962 25.0835C62.8152 26.1775 63.5 27.6612 63.5 29.2083C63.5 27.6612 64.1848 26.1775 65.4038 25.0835C66.6228 23.9896 68.2761 23.375 70 23.375H78.125C78.556 23.375 78.9693 23.5286 79.274 23.8021C79.5788 24.0756 79.75 24.4466 79.75 24.8333V43.7917C79.75 44.1784 79.5788 44.5494 79.274 44.8229C78.9693 45.0964 78.556 45.25 78.125 45.25H68.375C67.0821 45.25 65.8421 45.7109 64.9279 46.5314C64.0136 47.3519 63.5 48.4647 63.5 49.625C63.5 48.4647 62.9864 47.3519 62.0721 46.5314C61.1579 45.7109 59.9179 45.25 58.625 45.25H48.875Z" stroke="#00ADEF" stroke-width="3" stroke-linecap="round" stroke-linejoin="round"/>
<path d="M53.75 36.5H57" stroke="#00ADEF" stroke-width="2" stroke-linecap="round" stroke-linejoin="round"/>
<path d="M53.75 30.6667H57" stroke="#00ADEF" stroke-width="2" stroke-linecap="round" stroke-linejoin="round"/>
<path d="M201 66H207C207.552 66 208 66.4477 208 67V83C208 83.5523 207.552 84 207 84H201C200.448 84 200 83.5523 200 83V67C200 66.4477 200.448 66 201 66Z" stroke="#00ADEF" stroke-linecap="round" stroke-linejoin="round"/>
<path d="M204 66V84" stroke="#00ADEF" stroke-linecap="round" stroke-linejoin="round"/>
<path d="M190.6 81.9C190.4 82.4 190.7 83 191.2 83.2L193.1 83.9C193.6 84.1 194.2 83.8 194.4 83.3L199.9 68.1C200.1 67.6 199.8 67 199.3 66.8L197.4 66.1C196.9 65.9 196.3 66.2 196.1 66.7L190.6 81.9Z" stroke="#00ADEF" stroke-linecap="round" stroke-linejoin="round"/>
</svg>
