<svg width="96" height="109" viewBox="0 0 96 109" fill="none" xmlns="http://www.w3.org/2000/svg">
<path fill-rule="evenodd" clip-rule="evenodd" d="M47.5079 40.6042H22.9331V75.4472C22.9331 86.2987 29.0087 87.0188 35.5283 88.6564C40.3726 89.8698 44.0866 91.7441 47.5079 95.3646C50.9292 91.7343 54.6432 89.8698 59.4875 88.6564C66.0072 87.0089 72.0828 86.2987 72.0828 75.4373V40.6042H47.5079ZM43.9958 39.5979C45.2775 38.4931 45.6308 36.816 45.7014 35.3166H40.4433C40.3424 37.0331 39.4744 38.5917 38.112 39.5979H43.9958ZM51.0201 39.5979C49.7383 38.4931 49.3851 36.816 49.3145 35.3166H54.5726C54.6735 37.0331 55.5414 38.5917 56.9039 39.5979H51.0201ZM76.4124 37.2304L72.1131 39.5979H65.008L86.2928 27.9178C86.8075 27.6317 87.413 27.6317 87.9076 27.8784C88.5636 28.1743 88.9975 28.9537 88.8562 29.6442C88.7856 30.1473 88.4727 30.611 87.9883 30.8872L86.8782 31.4988L91.7427 39.9925C92.0656 40.5548 91.8537 40.979 91.4601 41.1961L87.7865 43.2085L84.7083 37.842L86.8681 36.6582L85.9698 35.0798L83.8101 36.2636L82.4678 33.9256L80.8227 34.8233L82.165 37.1613L80.0053 38.3451L80.9136 39.9235L83.0733 38.7397L86.1515 44.1161L82.4779 46.1285C82.0338 46.3752 81.6099 46.2962 81.287 45.7339L76.4124 37.2304ZM14.6776 71.6295C16.1712 71.6295 17.3823 72.8133 17.3823 74.2733C17.3823 75.7333 16.1712 76.9171 14.6776 76.9171C13.1839 76.9171 11.9728 75.7333 11.9728 74.2733C11.9728 72.8133 13.1839 71.6295 14.6776 71.6295ZM5.85685 71.5111C7.35052 71.5111 8.5616 72.6949 8.5616 74.1549C8.5616 75.6149 7.35052 76.7987 5.85685 76.7987C4.36318 76.7987 3.1521 75.6149 3.1521 74.1549C3.1521 72.6949 4.36318 71.5111 5.85685 71.5111ZM10.3681 64.1025C11.8618 64.1025 13.0729 65.2863 13.0729 66.7463C13.0729 68.2063 11.8618 69.3901 10.3681 69.3901C8.87446 69.3901 7.66338 68.2063 7.66338 66.7463C7.66338 65.2863 8.87446 64.1025 10.3681 64.1025ZM21.9138 63.412L16.2116 66.5391C16.1813 65.6612 15.9391 64.7733 15.4648 63.9545C13.8904 61.2022 10.3177 60.2157 7.5019 61.7645C5.01919 63.1259 3.93931 65.9867 4.79715 68.5417C4.18152 68.6502 3.56589 68.8673 2.99063 69.183C0.174863 70.7318 -0.834371 74.2141 0.750127 76.9664C2.32453 79.7089 5.89722 80.6954 8.71298 79.1466C9.28825 78.8309 9.79286 78.4264 10.2167 77.9726C11.993 80.0147 15.051 80.6164 17.5337 79.2551C20.3494 77.7063 21.3587 74.2239 19.7742 71.4716C19.2998 70.6528 18.6539 69.982 17.9071 69.4986L21.9037 67.3086L21.9138 63.412ZM70.0542 28.2434V25.1852H71.2552V24.0804H70.0542V22.6401H68.833V24.0804H67.6321V25.1852H68.833V28.2434H70.0542ZM72.0828 30.098V19.8878H70.9524V21.2689H70.0239V19.8878H68.8936V21.2689H67.9651V19.8878H66.8146V33.0871C66.8146 35.0502 66.4714 36.964 65.0686 38.4536L68.5807 36.4708C71.1543 35.0107 72.0828 33.3238 72.0828 30.098ZM24.9516 28.2434V25.1852H23.7506V24.0804H24.9516V22.6401H26.1727V24.0804H27.3737V25.1852H26.1727V28.2434H24.9516ZM22.9331 30.098C22.9331 33.3238 23.8616 35.0009 26.4351 36.4609L29.9473 38.4437C28.5343 36.964 28.2013 35.0403 28.2013 33.0772V19.8878H27.0709V21.2689H26.1425V19.8878H25.0121V21.2689H24.0836V19.8878H22.9533L22.9331 30.098ZM19.5522 101.54C19.6329 101.441 19.7742 101.362 19.9861 101.303C20.1981 101.244 20.3394 101.234 20.3999 101.293C20.4201 101.313 20.4605 101.382 20.5109 101.491C20.6623 101.846 20.8642 102.122 21.1064 102.309C21.5101 102.625 21.833 102.625 22.0853 102.319C22.1963 102.191 22.2165 102.023 22.1661 101.836C22.1156 101.649 22.0248 101.441 21.8936 101.234C21.7725 101.027 21.6514 100.8 21.5403 100.573C21.4394 100.346 21.389 100.08 21.4192 99.7939C21.4394 99.5078 21.5706 99.2218 21.8027 98.9357C22.0349 98.6595 22.3074 98.472 22.6202 98.3931C23.1955 98.2451 23.7708 98.3931 24.3561 98.8469C24.6791 99.1034 24.9213 99.3599 25.0626 99.6262C25.214 99.8926 25.2442 100.08 25.1534 100.189C25.0828 100.277 24.9415 100.366 24.7497 100.435C24.558 100.504 24.4268 100.514 24.3561 100.465C24.346 100.455 24.3157 100.406 24.2754 100.327C24.1744 100.119 23.9928 99.9222 23.7708 99.7545C23.5487 99.5868 23.357 99.498 23.2056 99.5078C23.0542 99.5177 22.9331 99.5769 22.8423 99.6854C22.7514 99.7939 22.7312 99.9518 22.7918 100.139C22.8423 100.327 22.9432 100.524 23.0643 100.731C23.1854 100.938 23.3065 101.155 23.4175 101.392C23.5285 101.619 23.5689 101.885 23.5487 102.171C23.5285 102.457 23.4074 102.734 23.1955 103C22.9835 103.266 22.7615 103.454 22.5294 103.572C22.2973 103.691 22.0651 103.75 21.833 103.74C21.389 103.72 20.955 103.552 20.5412 103.237C20.1274 102.921 19.8347 102.586 19.6531 102.25C19.4916 101.895 19.4613 101.658 19.5522 101.54ZM17.2915 99.9123C17.1704 100.041 17.2208 100.208 17.4529 100.435L17.6548 100.632C17.8869 100.859 18.0686 100.909 18.1998 100.78L21.8835 97.1205C22.0046 97.0021 21.9541 96.8147 21.722 96.5977L21.5202 96.4004C21.288 96.1735 21.1064 96.1242 20.9752 96.2524L17.2915 99.9123ZM14.2032 96.3708L18.1796 93.1548C18.3108 93.0463 18.4925 93.1153 18.6943 93.362L18.876 93.5691C19.0879 93.8158 19.1182 93.9933 18.987 94.1018L15.5758 96.8542L16.7465 98.2353C16.8474 98.3536 16.7969 98.5115 16.585 98.6792L16.3933 98.837C16.1813 99.0047 16.0198 99.0343 15.9189 98.9061L14.1528 96.8246C14.0216 96.6569 14.0316 96.5089 14.2032 96.3708ZM13.1738 91.7145L13.85 92.7207L14.8088 91.5468L15.1822 91.1621L15.162 91.1325C14.9198 91.2311 14.7482 91.2903 14.6574 91.3199L13.1738 91.7145ZM10.3984 91.3002C10.2975 91.3594 10.3378 91.5369 10.5296 91.8033L10.7113 92.0697C10.8324 92.2472 10.9535 92.3163 11.0645 92.2867L12.0838 92.0105L13.1536 93.5889L12.4976 94.3978C12.4169 94.4964 12.4572 94.6444 12.6086 94.8614L12.8105 95.1574C12.9619 95.3843 13.0931 95.4533 13.1839 95.3941C13.2243 95.3744 13.2646 95.335 13.2949 95.2955L16.696 90.9746C16.7667 90.876 16.7263 90.7182 16.585 90.5011L16.3529 90.1559C16.2015 89.9388 16.0703 89.8402 15.9492 89.8698L10.5599 91.2509C10.469 91.2706 10.4186 91.2903 10.3984 91.3002ZM25.5571 108.505C17.5438 104.47 9.88369 96.1932 7.01747 88.6268L14.95 84.5032C17.8062 90.6787 22.2266 96.282 29.0692 99.863L25.5571 108.505ZM69.4588 108.505L65.9466 99.863C72.7892 96.282 77.1996 90.6688 80.0658 84.5032L87.9984 88.6268C85.1221 96.1932 77.4721 104.47 69.4588 108.505ZM81.8623 95.2264C82.0439 95.3547 82.1953 95.3251 82.3164 95.1475L83.9211 92.9476C84.0119 92.8194 83.9514 92.6714 83.7293 92.5234L83.5275 92.3755C83.3055 92.2176 83.144 92.2078 83.0532 92.336L81.9935 93.796L78.3905 91.2903C78.2492 91.1917 78.0776 91.2706 77.8859 91.5369L77.7244 91.754C77.5326 92.0105 77.5125 92.1979 77.6538 92.2965L81.8623 95.2264ZM79.7328 97.89C79.8741 98.0084 80.0456 97.9393 80.2576 97.6927L80.4392 97.4757C80.6512 97.229 80.6915 97.0515 80.5502 96.9429L76.5436 93.6283C76.4023 93.5099 76.2307 93.579 76.0188 93.8256L75.8371 94.0426C75.6252 94.2893 75.5848 94.4668 75.7261 94.5852L79.7328 97.89ZM74.7774 102.645C74.8985 102.773 75.0802 102.724 75.3123 102.507L75.4839 102.349C75.7261 102.132 75.7867 101.964 75.6656 101.836L73.415 99.4486L77.3106 100.415C77.4822 100.455 77.6638 100.386 77.8556 100.218L78.0877 100.011C78.3299 99.7939 78.3905 99.6163 78.2694 99.498L74.7169 95.7197C74.5958 95.5914 74.4141 95.6408 74.182 95.8578L74.0104 96.0156C73.7682 96.2327 73.7076 96.4004 73.8288 96.5286L76.0491 98.8863L72.214 97.9294C72.0424 97.89 71.8607 97.959 71.669 98.1267L71.4066 98.3635C71.1644 98.5805 71.1038 98.7482 71.2249 98.8765L74.7774 102.645ZM47.5079 108.317C41.4424 108.317 34.4182 106.887 28.6756 103.898L32.0566 95.1574C37.0321 97.4954 42.815 98.9653 47.5079 98.9653C52.2009 98.9653 57.9838 97.4954 62.9593 95.1574L66.3402 103.898C60.5876 106.887 53.5734 108.317 47.5079 108.317ZM57.2067 104.815C57.2672 105.022 57.4085 105.091 57.6205 105.022L60.6381 104.095C60.7895 104.046 60.8298 103.888 60.7491 103.641L60.6784 103.404C60.5977 103.148 60.4766 103.049 60.3252 103.089L58.2058 103.74L57.8122 102.497L59.7197 101.905C59.8711 101.856 59.9114 101.698 59.8307 101.451L59.7499 101.214C59.6692 100.958 59.5481 100.859 59.3967 100.899L57.4893 101.491L57.136 100.376L59.2554 99.7249C59.4068 99.6755 59.4472 99.5177 59.3664 99.2711L59.2958 99.0343C59.215 98.7778 59.0939 98.6792 58.9426 98.7186L55.935 99.6361C55.7231 99.6953 55.6525 99.8334 55.7231 100.041L57.2067 104.815ZM49.9301 100.938C49.9301 100.958 49.9503 101.007 49.9906 101.076L52.6046 105.881C52.6651 105.989 52.8266 106.019 53.089 105.969L53.5129 105.9C53.7753 105.861 53.9166 105.782 53.9368 105.664L54.8249 100.297C54.835 100.238 54.835 100.189 54.8249 100.149C54.8047 100.031 54.6331 100.001 54.3102 100.05L54.0579 100.09C53.7955 100.129 53.6441 100.238 53.6239 100.396L53.0385 104.292L53.0083 104.302L51.2017 100.79C51.1311 100.652 50.9494 100.593 50.687 100.642L50.4145 100.682C50.0714 100.731 49.9099 100.82 49.9301 100.938ZM47.0336 104.174L48.2649 104.164L47.7905 102.744L47.6593 102.231H47.629C47.5786 102.487 47.5382 102.655 47.5079 102.744L47.0336 104.174ZM45.1564 106.216C45.1564 106.334 45.328 106.394 45.661 106.394H45.9941C46.206 106.394 46.3372 106.334 46.3675 106.226L46.6905 105.249L48.6282 105.239L48.9612 106.216C49.0016 106.325 49.153 106.384 49.4255 106.384H49.7888C50.0613 106.384 50.2026 106.325 50.1925 106.206C50.1925 106.167 50.1824 106.117 50.1723 106.058L48.3254 100.919C48.285 100.81 48.1236 100.751 47.8612 100.751H47.4373C47.1648 100.751 47.0134 100.81 46.973 100.919L45.2069 106.088C45.1665 106.147 45.1564 106.196 45.1564 106.216ZM41.5635 102.684L42.3407 102.783C42.5122 102.803 42.6636 102.753 42.8049 102.635C42.9462 102.517 43.0269 102.359 43.0572 102.181C43.0875 102.004 43.037 101.836 42.9361 101.708C42.8352 101.579 42.6636 101.51 42.4618 101.481L41.7452 101.392L41.5635 102.684ZM39.9185 105.525C39.8983 105.693 40.0497 105.802 40.3726 105.841L40.6552 105.871C40.9782 105.91 41.1599 105.851 41.18 105.673L41.4323 103.73L41.7553 103.77C41.9975 103.799 42.1691 103.858 42.27 103.947C42.3709 104.036 42.4719 104.164 42.5223 104.352L42.9563 105.979C42.9866 106.098 43.138 106.167 43.4104 106.206L43.7435 106.246C44.0664 106.285 44.238 106.255 44.2481 106.147C44.2481 106.117 44.2481 106.068 44.2279 105.989L43.7435 104.154C43.693 103.977 43.6224 103.809 43.5315 103.651C43.4407 103.493 43.3499 103.395 43.249 103.345V103.316C43.5517 103.247 43.8141 103.109 44.0059 102.911C44.1976 102.714 44.3288 102.457 44.3591 102.171C44.4903 101.175 43.8848 100.593 42.5324 100.425L40.9479 100.228C40.7259 100.198 40.6048 100.297 40.5846 100.504L39.9185 105.525ZM34.2466 101.274C33.964 102.221 33.9741 102.98 34.2668 103.552C34.5595 104.125 35.1448 104.529 36.0229 104.776C36.3862 104.874 36.7798 104.943 37.1734 104.983C37.3954 105.003 37.5872 104.993 37.7385 104.943C37.9 104.894 38.0009 104.805 38.0312 104.687L38.657 102.546C38.7175 102.339 38.6469 102.211 38.4349 102.152L36.8302 101.698C36.6688 101.658 36.5577 101.757 36.477 102.014L36.4064 102.26C36.3256 102.517 36.3761 102.665 36.5275 102.714L37.2238 102.911L36.9312 103.888C36.7192 103.868 36.5073 103.829 36.3054 103.77C35.4072 103.523 35.1347 102.803 35.4779 101.649C35.821 100.484 36.4467 100.031 37.355 100.287C37.7486 100.396 38.0716 100.563 38.3239 100.761C38.4147 100.83 38.4652 100.869 38.4753 100.869C38.5661 100.889 38.7074 100.83 38.8891 100.682C39.0707 100.534 39.1717 100.396 39.2019 100.287C39.2423 100.139 39.101 99.9616 38.7579 99.7545C38.4147 99.5473 38.0514 99.3895 37.678 99.2809C35.932 98.7778 34.7916 99.4486 34.2466 101.274ZM73.1021 63.412L78.8043 66.5391C78.8346 65.6612 79.0768 64.7733 79.5511 63.9545C81.1356 61.2022 84.6982 60.2157 87.514 61.7645C89.9967 63.1259 91.0766 65.9867 90.2187 68.5417C90.8344 68.6502 91.45 68.8673 92.0252 69.183C94.841 70.7318 95.8502 74.2141 94.2657 76.9664C92.6812 79.7187 89.1186 80.7052 86.3029 79.1564C85.7276 78.8408 85.223 78.4363 84.7991 77.9825C83.0229 80.0245 79.9649 80.6263 77.4822 79.2649C74.6664 77.7161 73.6572 74.2338 75.2417 71.4815C75.716 70.6627 76.3619 69.9919 77.1088 69.5085L73.1122 67.3185V63.412H73.1021ZM18.5429 37.2304L13.6784 45.7142C13.3555 46.2765 12.9316 46.3456 12.4875 46.1088L8.80381 44.0964L11.882 38.72L14.0417 39.9038L14.95 38.3254L12.7903 37.1416L14.1326 34.8036L12.4875 33.9059L11.1452 36.2439L8.98547 35.0601L8.08726 36.6385L10.247 37.8223L7.16885 43.1888L3.49524 41.1763C3.10164 40.9593 2.8897 40.5351 3.21266 39.9728L8.07716 31.4791L6.96701 30.8675C6.47248 30.6011 6.16971 30.1276 6.09907 29.6245C5.96787 28.9339 6.39174 28.1546 7.04775 27.8586C7.54227 27.6219 8.14781 27.612 8.67261 27.8981L29.9574 39.5782H22.8523L18.5429 37.2304ZM47.5079 31.6468C46.2666 31.6468 45.217 31.045 44.6215 30.0191C44.0261 31.045 42.9765 31.6468 41.7553 31.6468C40.5341 31.6468 39.4845 31.045 38.8891 30.0191C38.5863 30.5419 38.1422 30.9858 37.5973 31.2719L38.1826 32.5938C38.6973 33.7579 39.3735 34.3695 40.4231 34.3695H47.4978H54.5726C55.6121 34.3695 56.2883 33.7678 56.8131 32.5938L57.3984 31.2719C56.8534 30.9858 56.4195 30.5419 56.1066 30.0191C55.5112 31.045 54.4616 31.6468 53.2404 31.6468C52.0192 31.6468 50.9696 31.045 50.3742 30.0191C49.7989 31.045 48.7493 31.6468 47.5079 31.6468ZM47.5079 22.5118C48.1437 23.6167 49.2741 24.2481 50.576 24.2481C51.8779 24.2481 53.0083 23.6167 53.6441 22.5118C54.2799 23.6167 55.4607 24.2481 56.7122 24.2481C57.9535 24.2481 58.9627 23.7252 59.6187 22.7585C59.5481 25.6588 58.6802 28.2039 57.7819 30.4038C57.0856 29.9895 56.6011 29.5653 56.6011 28.4505H57.9434V27.4246H56.6415V26.1323H55.5919V27.4246H54.3001V28.4505H55.6323C55.6323 29.5554 54.5827 30.7096 53.2505 30.7096C51.9183 30.7096 50.8687 29.6047 50.8687 28.4505H52.2211V27.4246H50.9191V26.1323H49.8695V27.4246H48.5777V28.4505H49.92C49.92 29.5949 48.8805 30.7096 47.5079 30.7096C46.1455 30.7096 45.0959 29.585 45.0959 28.4505H46.4381V27.4246H45.1463V26.1323H44.0967V27.4246H42.7948V28.4505H44.1472C44.1472 29.6047 43.1077 30.7096 41.7654 30.7096C40.4231 30.7096 39.3836 29.5554 39.3836 28.4505H40.7259V27.4246H39.4341V26.1323H38.3845V27.4246H37.0825V28.4505H38.4248C38.4248 29.5653 37.9404 29.9895 37.244 30.4038C36.3458 28.2039 35.4779 25.6588 35.4072 22.7585C36.0733 23.7252 37.0725 24.2481 38.3239 24.2481C39.5653 24.2481 40.7562 23.6167 41.392 22.5118C42.0278 23.6167 43.1581 24.2481 44.46 24.2481C45.7418 24.2481 46.8721 23.6167 47.5079 22.5118ZM47.5079 16.9579C46.2666 16.9579 45.217 16.3561 44.6215 15.3301C44.0261 16.3561 43.1985 16.9579 41.7553 16.9579C40.3222 16.9579 38.7377 16.0799 38.445 14.3634C37.1936 15.8727 36.3458 17.1453 35.8311 18.9999C35.7504 19.2959 35.6797 19.6017 35.6192 19.8976H37.0624V20.9137H35.71C35.71 22.0285 36.9009 23.3109 38.3037 23.3109C39.7066 23.3109 40.8974 22.0186 40.8974 20.9137H39.5552V19.8878H40.847V18.5856H41.8966V19.8878H43.1985V20.9137H41.8562C41.8562 22.0285 43.0269 23.3109 44.45 23.3109C45.873 23.3109 47.0437 22.0285 47.0437 20.9137H45.7014V19.8878H46.9932V18.5856H47.518H48.0428V19.8878H49.3346V20.9137H47.9924C47.9924 22.0285 49.1631 23.3109 50.5861 23.3109C52.0091 23.3109 53.1798 22.0285 53.1798 20.9137H51.8375V19.8878H53.1294V18.5856H54.179V19.8878H55.4708V20.9137H54.1285C54.1285 22.0186 55.3194 23.3109 56.7222 23.3109C58.1251 23.3109 59.316 22.0285 59.316 20.9137H57.9737V19.8878H59.4169C59.3563 19.5819 59.2857 19.286 59.205 18.99C58.6902 17.1453 57.8425 15.8629 56.591 14.3535C56.3085 16.07 54.724 16.948 53.2808 16.948C51.8376 16.948 51.0201 16.3462 50.4145 15.3203C49.7989 16.3462 48.7493 16.9579 47.5079 16.9579ZM49.0722 8.90806C51.2219 9.92415 53.4422 11.3743 54.9965 12.7258H54.29V13.7518H55.6323C55.6323 14.9158 54.5928 16.0108 53.2505 16.0108C51.9082 16.0108 50.8687 14.9257 50.8687 13.7616H52.211V12.7357H50.9091V11.4335H49.8594V12.7357H48.5676V13.7616H49.9099C49.9099 14.9158 48.8704 16.0207 47.4978 16.0207C46.1354 16.0207 45.0858 14.906 45.0858 13.7616H46.4281V12.7357H45.1362V11.4335H44.0866V12.7357H42.7948V13.7616H44.1371C44.1371 14.9257 43.0976 16.0207 41.7553 16.0207C40.413 16.0207 39.3735 14.9158 39.3735 13.7616H40.7158V12.7357H40.0093C41.5635 11.3842 43.794 9.93401 45.9335 8.91792C45.762 8.6417 45.661 8.31616 45.661 7.97089C45.661 7.30007 46.0445 6.70817 46.5996 6.40236V4.07423H44.3591V2.35773H46.5996V0H47.4978H48.3961V2.35773H50.6366V4.07423H48.3961V6.40236C48.9612 6.70817 49.3346 7.30007 49.3346 7.97089C49.3447 8.31616 49.2539 8.6417 49.0722 8.90806ZM80.3383 71.6295C78.8447 71.6295 77.6336 72.8133 77.6336 74.2733C77.6336 75.7333 78.8447 76.9171 80.3383 76.9171C81.832 76.9171 83.0431 75.7333 83.0431 74.2733C83.0431 72.8133 81.832 71.6295 80.3383 71.6295ZM89.159 71.5111C87.6654 71.5111 86.4543 72.6949 86.4543 74.1549C86.4543 75.6149 87.6654 76.7987 89.159 76.7987C90.6527 76.7987 91.8638 75.6149 91.8638 74.1549C91.8638 72.6949 90.6527 71.5111 89.159 71.5111ZM84.6477 64.1025C83.1541 64.1025 81.943 65.2863 81.943 66.7463C81.943 68.2063 83.1541 69.3901 84.6477 69.3901C86.1414 69.3901 87.3525 68.2063 87.3525 66.7463C87.3525 65.2863 86.1414 64.1025 84.6477 64.1025ZM47.5079 81.1491C46.2464 81.1491 45.106 82.0962 43.8242 83.2898C42.381 84.6315 40.5038 86.1408 38.2432 85.5489L41.1296 82.4711C39.9992 82.106 38.7882 82.6289 37.3752 83.2602C35.9219 83.8225 34.3475 84.4342 32.5814 83.4477L36.7798 81.1689C35.0338 79.7187 30.4519 82.5302 28.5747 79.8371L34.7815 78.5843C33.4594 76.6606 28.4839 78.3475 27.2526 75.2992H34.3778C33.3988 73.1092 27.8178 74.1944 26.8994 70.7613L34.3778 71.7873C33.4089 69.2915 28.0701 69.5874 26.8994 65.7401L34.3778 68.009C33.742 65.2468 27.7269 64.8325 26.8994 60.2848L34.3778 63.8164C33.7924 60.3045 27.5655 59.6041 26.8994 54.6913L34.5595 58.9629C34.4686 55.5299 27.3031 53.7936 26.8994 48.6145L34.6705 53.8035C34.4585 49.5122 27.4444 47.8253 26.8994 42.5377L34.8017 47.2334C38.4551 49.4037 40.2515 51.574 42.0177 56.102C43.3499 59.5153 44.8436 62.4748 47.5079 62.4748C50.1723 62.4748 51.666 59.5153 52.9982 56.102C54.7643 51.574 56.5608 49.4037 60.2142 47.2334L68.1165 42.5377C67.5816 47.8253 60.5674 49.5122 60.3555 53.8035L68.1165 48.6145C67.7128 53.7936 60.5472 55.5299 60.4564 58.9629L68.1165 54.6913C67.4605 59.6041 61.2335 60.3045 60.6381 63.8164L68.1165 60.2848C67.2889 64.8226 61.2739 65.2468 60.6381 68.009L68.1165 65.7401C66.9458 69.5874 61.6069 69.2915 60.6381 71.7873L68.1165 70.7613C67.1981 74.1845 61.617 73.1092 60.6381 75.2992H67.7633C66.532 78.3574 61.5565 76.6606 60.2344 78.5843L66.4412 79.8371C64.5741 82.5302 59.9922 79.7187 58.2361 81.1689L62.4345 83.4477C60.6683 84.4342 59.0939 83.8225 57.6406 83.2602C56.2378 82.6289 55.0267 82.1159 53.8863 82.4711L56.7727 85.5489C54.5221 86.1408 52.6348 84.6315 51.1916 83.2898C49.9099 82.0962 48.7695 81.1491 47.5079 81.1491ZM48.0126 65.089H58.4581V78.5941H48.0126V65.089ZM36.5477 65.089H46.9932V78.5941H36.5477V65.089ZM41.3415 67.8906H42.1388C42.4819 67.8906 42.6737 67.9202 42.7847 68.2063L45.3583 74.9244C45.3986 75.023 45.4087 75.0921 45.4087 75.1217C45.4087 75.2795 45.1766 75.3584 44.7023 75.3584H44.3995C44.0967 75.3584 43.9151 75.2795 43.8646 75.1315L43.4003 73.8294H41.7553H40.1102L39.646 75.1315C39.5955 75.2795 39.4139 75.3584 39.1111 75.3584H38.8184C38.3441 75.3584 38.112 75.2795 38.112 75.1217C38.112 75.0921 38.1221 75.023 38.1624 74.9244L40.736 68.2063C40.8672 67.9202 40.9984 67.8906 41.3415 67.8906ZM41.7755 69.4592H41.8259L42.9563 72.5173H40.5947L41.725 69.4592H41.7755ZM53.2404 67.6243C55.5213 67.6243 56.7222 69.5282 56.7222 71.0869C56.7222 72.1819 56.3085 73.1585 55.2891 73.9675L56.5709 73.928C56.7929 73.9181 56.9645 74.0562 56.9645 74.3818V74.806C56.9645 75.1611 56.8333 75.2992 56.6213 75.2992H53.9973C53.7854 75.2992 53.6643 75.2006 53.6643 74.8652V74.4114C53.6643 74.2042 53.7652 74.0858 53.856 74.0069C54.6836 73.3065 55.168 72.4483 55.1882 71.3927C55.1983 70.2484 54.5726 69.104 53.2404 69.104C51.9082 69.104 51.2724 70.2484 51.2926 71.3927C51.3027 72.4581 51.7871 73.3065 52.6248 74.0069C52.7055 74.076 52.8165 74.2042 52.8165 74.4114V74.8652C52.8165 75.1907 52.7055 75.2992 52.4835 75.2992H49.8594C49.6475 75.2992 49.5163 75.171 49.5163 74.806V74.3818C49.5163 74.0562 49.6879 73.9181 49.9099 73.928L51.1916 73.9675C50.1622 73.1585 49.7585 72.1819 49.7585 71.0869C49.7484 69.5184 50.9595 67.6243 53.2404 67.6243Z" fill="black"/>
</svg>
